#N canvas 1272 0 1280 982 10;
#X floatatom 63 106 5 0 0 0 - - -;
#X obj 63 -74 vsl 15 128 0 1000 0 0 empty empty empty 0 -9 0 10 -262144
-1 -1 0 1;
#X obj 63 154 * 1;
#X obj 114 153 * 2;
#X obj 169 153 * 3;
#X obj 218 153 * 4;
#X obj 278 152 * 5;
#X obj 329 151 * 6;
#X obj 385 150 * 7;
#X obj 447 149 * 8;
#X floatatom 61 195 5 0 0 0 - - -;
#X floatatom 115 196 5 0 0 0 - - -;
#X floatatom 165 197 5 0 0 0 - - -;
#X floatatom 220 195 5 0 0 0 - - -;
#X floatatom 279 194 5 0 0 0 - - -;
#X floatatom 333 195 5 0 0 0 - - -;
#X floatatom 383 196 5 0 0 0 - - -;
#X floatatom 446 193 5 0 0 0 - - -;
#X text -25 180 them harmonics;
#X text 69 79 fundamental freq.;
#X obj 38 280 osc~ \$1;
#X obj 106 278 osc~ \$1;
#X obj 161 276 osc~ \$1;
#X obj 229 274 osc~ \$1;
#X obj 293 274 osc~ \$1;
#X obj 361 272 osc~ \$1;
#X obj 416 270 osc~ \$1;
#X obj 474 270 osc~ \$1;
#X obj 201 439 *~;
#X obj 258 434 *~;
#X obj 322 440 *~;
#X obj 379 435 *~;
#X obj 455 433 *~;
#X obj 512 428 *~;
#X obj 576 434 *~;
#X obj 658 445 *~;
#X obj 807 31 hsl 128 15 0 0.5 0 0 empty harm1 empty -2 -8 0 10 -262144
-1 -1 0 1;
#X msg 790 92 \$1 25;
#X obj 791 149 line~;
#X obj 843 65 hsl 128 15 0 0.5 0 0 empty harm2 empty -2 -8 0 10 -262144
-1 -1 0 1;
#X msg 833 120 \$1 25;
#X obj 834 177 line~;
#X obj 874 100 hsl 128 15 0 0.5 0 0 empty harm3 empty -2 -8 0 10 -262144
-1 -1 0 1;
#X msg 875 128 \$1 25;
#X obj 876 185 line~;
#X obj 917 123 hsl 128 15 0 0.5 0 0 empty harm4 empty -2 -8 0 10 -262144
-1 -1 0 1;
#X msg 914 169 \$1 25;
#X obj 915 226 line~;
#X obj 960 146 hsl 128 15 0 0.5 0 0 empty harm5 empty -2 -8 0 10 -262144
-1 -1 0 1;
#X msg 957 192 \$1 25;
#X obj 958 249 line~;
#X obj 1002 168 hsl 128 15 0 0.5 0 0 empty harm6 empty -2 -8 0 10 -262144
-1 -1 0 1;
#X msg 999 214 \$1 25;
#X obj 1000 271 line~;
#X obj 1043 188 hsl 128 15 0 0.5 0 0 empty harm7 empty -2 -8 0 10 -262144
-1 -1 0 1;
#X msg 1047 234 \$1 25;
#X obj 1039 283 line~;
#X obj 1088 214 hsl 128 15 0 0.5 0 0 empty harm8 empty -2 -8 0 10 -262144
-1 -1 0 1;
#X msg 1085 260 \$1 25;
#X obj 1086 317 line~;
#X text 1009 97 harmonics control;
#X obj 964 419 hsl 128 15 0 0.5 0 0 empty amplitude empty -2 -8 0 10
-262144 -1 -1 0 1;
#X msg 961 465 \$1 25;
#X obj 962 522 line~;
#X obj 609 706 dac~;
#X obj 606 611 *~;
#X text 991 491 amplitude control;
#N canvas 756 150 450 300 control 1;
#X obj 11 13 vsl 15 128 0 1 0 0 harm1 empty empty 0 -9 0 10 -258113
-1 -1 0 1;
#X obj 30 13 vsl 15 128 0 1 0 0 harm2 empty empty 0 -9 0 10 -260097
-1 -1 0 1;
#X obj 49 13 vsl 15 128 0 1 0 0 harm3 empty empty 0 -9 0 10 -257985
-1 -1 0 1;
#X obj 68 13 vsl 15 128 0 1 0 0 harm4 empty empty 0 -9 0 10 -228856
-1 -1 0 1;
#X obj 87 13 vsl 15 128 0 1 0 0 harm5 empty empty 0 -9 0 10 -4034 -1
-1 0 1;
#X obj 106 13 vsl 15 128 0 1 0 0 harm6 empty empty 0 -9 0 10 -4032
-1 -1 0 1;
#X obj 125 13 vsl 15 128 0 1 0 0 harm7 empty empty 0 -9 0 10 -4160
-1 -1 0 1;
#X obj 144 13 vsl 15 128 0 1 0 0 harm8 empty empty 0 -9 0 10 -159808
-1 -1 0 1;
#X text 51 147 harmonics;
#X obj 21 176 hsl 128 15 0 0.5 0 0 amplitude empty empty -2 -8 0 10
-262144 -1 -1 0 1;
#X text 59 190 volume;
#X restore 231 -124 pd control;
#X connect 0 0 2 0;
#X connect 0 0 3 0;
#X connect 0 0 4 0;
#X connect 0 0 5 0;
#X connect 0 0 6 0;
#X connect 0 0 7 0;
#X connect 0 0 8 0;
#X connect 0 0 9 0;
#X connect 1 0 0 0;
#X connect 2 0 10 0;
#X connect 3 0 11 0;
#X connect 4 0 12 0;
#X connect 5 0 13 0;
#X connect 6 0 14 0;
#X connect 7 0 15 0;
#X connect 8 0 16 0;
#X connect 9 0 17 0;
#X connect 10 0 20 0;
#X connect 11 0 21 0;
#X connect 12 0 22 0;
#X connect 13 0 23 0;
#X connect 14 0 24 0;
#X connect 15 0 25 0;
#X connect 16 0 26 0;
#X connect 17 0 27 0;
#X connect 20 0 28 0;
#X connect 21 0 29 0;
#X connect 22 0 30 0;
#X connect 23 0 31 0;
#X connect 24 0 32 0;
#X connect 25 0 33 0;
#X connect 26 0 34 0;
#X connect 27 0 35 0;
#X connect 28 0 65 0;
#X connect 29 0 65 0;
#X connect 30 0 65 0;
#X connect 31 0 65 0;
#X connect 32 0 65 0;
#X connect 33 0 65 0;
#X connect 34 0 65 0;
#X connect 35 0 65 0;
#X connect 36 0 37 0;
#X connect 37 0 38 0;
#X connect 38 0 28 1;
#X connect 39 0 40 0;
#X connect 40 0 41 0;
#X connect 41 0 29 1;
#X connect 42 0 43 0;
#X connect 43 0 44 0;
#X connect 44 0 30 1;
#X connect 45 0 46 0;
#X connect 46 0 47 0;
#X connect 47 0 31 1;
#X connect 48 0 49 0;
#X connect 49 0 50 0;
#X connect 50 0 32 1;
#X connect 51 0 52 0;
#X connect 52 0 53 0;
#X connect 53 0 33 1;
#X connect 54 0 55 0;
#X connect 55 0 56 0;
#X connect 56 0 34 1;
#X connect 57 0 58 0;
#X connect 58 0 59 0;
#X connect 59 0 35 1;
#X connect 61 0 62 0;
#X connect 62 0 63 0;
#X connect 63 0 65 1;
#X connect 65 0 64 0;
#X connect 65 0 64 1;
