#N canvas -8 -8 1680 1008 10;
#X floatatom 63 106 5 0 0 0 - - -;
#X obj 63 154 * 1;
#X obj 114 153 * 2;
#X obj 169 153 * 3;
#X obj 218 153 * 4;
#X obj 278 152 * 5;
#X obj 329 151 * 6;
#X obj 385 150 * 7;
#X obj 447 149 * 8;
#X floatatom 61 195 5 0 0 0 - - -;
#X floatatom 115 196 5 0 0 0 - - -;
#X floatatom 165 197 5 0 0 0 - - -;
#X floatatom 220 195 5 0 0 0 - - -;
#X floatatom 279 194 5 0 0 0 - - -;
#X floatatom 333 195 5 0 0 0 - - -;
#X floatatom 383 196 5 0 0 0 - - -;
#X floatatom 446 193 5 0 0 0 - - -;
#X text -25 180 them harmonics;
#X text 69 79 fundamental freq.;
#X obj 38 280 osc~ \$1;
#X obj 106 278 osc~ \$1;
#X obj 161 276 osc~ \$1;
#X obj 229 274 osc~ \$1;
#X obj 293 274 osc~ \$1;
#X obj 361 272 osc~ \$1;
#X obj 416 270 osc~ \$1;
#X obj 474 270 osc~ \$1;
#X obj 418 399 *~;
#X obj 477 396 *~;
#X obj 539 400 *~;
#X obj 596 395 *~;
#X obj 672 393 *~;
#X obj 729 388 *~;
#X obj 793 394 *~;
#X obj 875 401 *~;
#X obj 740 -433 hsl 128 15 0 0.5 0 0 empty harm1 empty -2 -8 0 10 -262144
-1 -1 12700 1;
#X msg 723 -372 \$1 25;
#X obj 724 -315 line~;
#X obj 775 -399 hsl 128 15 0 0.5 0 0 empty harm2 empty -2 -8 0 10 -262144
-1 -1 6000 1;
#X msg 766 -344 \$1 25;
#X obj 767 -287 line~;
#X obj 807 -364 hsl 128 15 0 0.5 0 0 empty harm3 empty -2 -8 0 10 -262144
-1 -1 4500 1;
#X msg 808 -336 \$1 25;
#X obj 809 -279 line~;
#X obj 850 -341 hsl 128 15 0 0.5 0 0 empty harm4 empty -2 -8 0 10 -262144
-1 -1 4500 1;
#X msg 847 -295 \$1 25;
#X obj 848 -238 line~;
#X obj 893 -318 hsl 128 15 0 0.5 0 0 empty harm5 empty -2 -8 0 10 -262144
-1 -1 6500 1;
#X msg 890 -272 \$1 25;
#X obj 891 -215 line~;
#X obj 935 -296 hsl 128 15 0 0.5 0 0 empty harm6 empty -2 -8 0 10 -262144
-1 -1 5300 1;
#X msg 932 -250 \$1 25;
#X obj 933 -193 line~;
#X obj 976 -276 hsl 128 15 0 0.5 0 0 empty harm7 empty -2 -8 0 10 -262144
-1 -1 4300 1;
#X msg 980 -230 \$1 25;
#X obj 972 -181 line~;
#X obj 1021 -250 hsl 128 15 0 0.5 0 0 empty harm8 empty -2 -8 0 10
-262144 -1 -1 3600 1;
#X msg 1018 -204 \$1 25;
#X obj 1019 -147 line~;
#X text 942 -367 harmonics control;
#X obj 1212 565 hsl 128 15 0 0.5 0 0 empty amplitude empty -2 -8 0
10 -262144 -1 -1 8400 1;
#X msg 1205 603 \$1 25;
#X obj 1206 660 line~;
#X obj 804 896 dac~;
#X obj 1017 680 *~;
#X text 1235 629 amplitude control;
#N canvas 8 390 450 322 control 1;
#X obj 11 13 vsl 15 128 0 0.5 0 0 harm1 empty empty 0 -9 0 10 -258113
-1 -1 0 1;
#X obj 30 13 vsl 15 128 0 0.5 0 0 harm2 empty empty 0 -9 0 10 -260097
-1 -1 0 1;
#X obj 49 13 vsl 15 128 0 0.5 0 0 harm3 empty empty 0 -9 0 10 -257985
-1 -1 0 1;
#X obj 68 13 vsl 15 128 0 0.5 0 0 harm4 empty empty 0 -9 0 10 -228856
-1 -1 0 1;
#X obj 87 13 vsl 15 128 0 0.5 0 0 harm5 empty empty 0 -9 0 10 -4034
-1 -1 0 1;
#X obj 106 13 vsl 15 128 0 0.5 0 0 harm6 empty empty 0 -9 0 10 -4032
-1 -1 0 1;
#X obj 125 13 vsl 15 128 0 0.5 0 0 harm7 empty empty 0 -9 0 10 -4160
-1 -1 0 1;
#X obj 144 13 vsl 15 128 0 0.5 0 0 harm8 empty empty 0 -9 0 10 -159808
-1 -1 0 1;
#X text 51 147 harmonics;
#X obj 21 176 hsl 128 15 0 0.5 0 0 amplitude empty empty -2 -8 0 10
-262144 -1 -1 0 1;
#X text 59 190 volume;
#X restore 180 2 pd control;
#X obj 960 293 line~;
#X obj 1015 298 line~;
#X obj 1062 299 line~;
#X obj 1108 303 line~;
#X obj 1157 301 line~;
#X obj 1207 302 line~;
#X obj 1257 302 line~;
#X obj 1312 305 line~;
#X obj 802 488 *~;
#X obj 859 483 *~;
#X obj 923 489 *~;
#X obj 980 484 *~;
#X obj 1032 475 *~;
#X obj 1107 475 *~;
#X obj 1157 479 *~;
#X obj 1234 480 *~;
#X text 1400 178 attack release control;
#X obj 1031 -76 vsl 15 128 0 1 0 0 empty empty empty 0 -9 0 10 -262144
-1 -1 12700 1;
#X obj 1057 -57 vsl 15 128 0 1000 0 0 empty empty empty 0 -9 0 10 -262144
-1 -1 10900 1;
#X obj 1084 -77 vsl 15 128 0 1 0 0 empty empty empty 0 -9 0 10 -262144
-1 -1 12700 1;
#X obj 1110 -58 vsl 15 128 0 1000 0 0 empty empty empty 0 -9 0 10 -262144
-1 -1 12300 1;
#X obj 1138 -75 vsl 15 128 0 1 0 0 empty empty empty 0 -9 0 10 -262144
-1 -1 10000 1;
#X obj 1164 -56 vsl 15 128 0 1000 0 0 empty empty empty 0 -9 0 10 -262144
-1 -1 12700 1;
#X obj 1191 -76 vsl 15 128 0 1 0 0 empty empty empty 0 -9 0 10 -262144
-1 -1 12700 1;
#X obj 1217 -57 vsl 15 128 0 1000 0 0 empty empty empty 0 -9 0 10 -262144
-1 -1 12700 1;
#X obj 1243 -77 vsl 15 128 0 1 0 0 empty empty empty 0 -9 0 10 -262144
-1 -1 12700 1;
#X obj 1269 -58 vsl 15 128 0 1000 0 0 empty empty empty 0 -9 0 10 -262144
-1 -1 12700 1;
#X obj 1296 -78 vsl 15 128 0 1 0 0 empty empty empty 0 -9 0 10 -262144
-1 -1 12700 1;
#X obj 1322 -59 vsl 15 128 0 1000 0 0 empty empty empty 0 -9 0 10 -262144
-1 -1 12700 1;
#X obj 1350 -79 vsl 15 128 0 1 0 0 empty empty empty 0 -9 0 10 -262144
-1 -1 12700 1;
#X obj 1376 -60 vsl 15 128 0 1000 0 0 empty empty empty 0 -9 0 10 -262144
-1 -1 12700 1;
#X obj 1403 -80 vsl 15 128 0 1 0 0 empty empty empty 0 -9 0 10 -262144
-1 -1 12700 1;
#X obj 1429 -61 vsl 15 128 0 1000 0 0 empty empty empty 0 -9 0 10 -262144
-1 -1 12700 1;
#X msg 1024 207 \$1 \$2;
#X msg 1082 211 \$1 \$2;
#X msg 1131 210 \$1 \$2;
#X msg 1178 213 \$1 \$2;
#X msg 1227 217 \$1 \$2;
#X msg 1280 218 \$1 \$2;
#X msg 1326 217 \$1 \$2;
#X msg 1381 221 \$1 \$2;
#X msg 1564 209 0 \$1;
#X msg 1620 213 0 \$1;
#X msg 1671 212 0 \$1;
#X msg 1718 215 0 \$1;
#X msg 1767 219 0 \$1;
#X msg 1820 221 0 \$1;
#X msg 1866 219 0 \$1;
#X msg 1921 223 0 \$1;
#X obj 1018 109 pack f f;
#X obj 1072 143 pack f f;
#X obj 1133 115 pack f f;
#X obj 1176 147 pack f f;
#X obj 1237 104 pack f f;
#X obj 1295 139 pack f f;
#X obj 1347 106 pack f f;
#X obj 1395 132 pack f f;
#X obj 1033 84 bng 15 250 50 0 empty empty empty 17 7 0 10 -262144
-1 -1;
#X obj 1100 82 bng 15 250 50 0 empty empty empty 17 7 0 10 -262144
-1 -1;
#X obj 1149 81 bng 15 250 50 0 empty empty empty 17 7 0 10 -262144
-1 -1;
#X obj 1205 83 bng 15 250 50 0 empty empty empty 17 7 0 10 -262144
-1 -1;
#X obj 1255 84 bng 15 250 50 0 empty empty empty 17 7 0 10 -262144
-1 -1;
#X obj 1305 83 bng 15 250 50 0 empty empty empty 17 7 0 10 -262144
-1 -1;
#X obj 1362 82 bng 15 250 50 0 empty empty empty 17 7 0 10 -262144
-1 -1;
#X obj 1415 88 bng 15 250 50 0 empty empty empty 17 7 0 10 -262144
-1 -1;
#X obj 1540 -7 vsl 15 128 0 1000 0 0 empty empty empty 0 -9 0 10 -262144
-1 -1 7000 1;
#X obj 1593 -8 vsl 15 128 0 1000 0 0 empty empty empty 0 -9 0 10 -262144
-1 -1 4900 1;
#X obj 1647 -6 vsl 15 128 0 1000 0 0 empty empty empty 0 -9 0 10 -262144
-1 -1 9900 1;
#X obj 1700 -7 vsl 15 128 0 1000 0 0 empty empty empty 0 -9 0 10 -262144
-1 -1 4900 1;
#X obj 1752 -8 vsl 15 128 0 1000 0 0 empty empty empty 0 -9 0 10 -262144
-1 -1 6600 1;
#X obj 1805 -9 vsl 15 128 0 1000 0 0 empty empty empty 0 -9 0 10 -262144
-1 -1 10600 1;
#X obj 1859 -10 vsl 15 128 0 1000 0 0 empty empty empty 0 -9 0 10 -262144
-1 -1 4300 1;
#X obj 1908 -13 vsl 15 128 0 1000 0 0 empty empty empty 0 -9 0 10 -262144
-1 -1 7600 1;
#X obj 1514 132 bng 15 250 50 0 empty empty empty 17 7 0 10 -262144
-1 -1;
#X obj 1576 131 bng 15 250 50 0 empty empty empty 17 7 0 10 -262144
-1 -1;
#X obj 1626 133 bng 15 250 50 0 empty empty empty 17 7 0 10 -262144
-1 -1;
#X obj 1681 124 bng 15 250 50 0 empty empty empty 17 7 0 10 -262144
-1 -1;
#X obj 1735 132 bng 15 250 50 0 empty empty empty 17 7 0 10 -262144
-1 -1;
#X obj 1783 133 bng 15 250 50 0 empty empty empty 17 7 0 10 -262144
-1 -1;
#X obj 1833 130 bng 15 250 50 0 empty empty empty 17 7 0 10 -262144
-1 -1;
#X obj 1883 128 bng 15 250 50 0 empty empty empty 17 7 0 10 -262144
-1 -1;
#X obj 1540 152 pack f;
#X obj 1596 155 pack f;
#X obj 1651 153 pack f;
#X obj 1707 156 pack f;
#X obj 1762 157 pack f;
#X obj 1818 160 pack f;
#X obj 1873 158 pack f;
#X obj 1929 161 pack f;
#X obj 143 -24 mtof;
#X msg 49 -124 48;
#X msg 95 -119 50;
#X msg 142 -122 52;
#X msg 187 -123 53;
#X msg 233 -120 55;
#X msg 278 -121 57;
#X msg 326 -118 59;
#X msg 371 -119 60;
#X msg 73 -148 49;
#X msg 118 -149 51;
#X msg 212 -147 54;
#X msg 257 -144 56;
#X msg 302 -145 58;
#X obj 690 556 hsl 128 15 0 100 0 0 empty amplitude empty -2 -8 0 10
-262144 -1 -1 0 1;
#X msg 684 603 \$1 25;
#X obj 638 688 line~;
#X obj 603 531 knob 32 32 0 44 0 0 empty empty empty 0 -8 0 8 -262144
-1 -1 0 1;
#X msg 576 596 \$1 25;
#X obj 691 773 *~;
#X obj 570 682 osc~;
#X obj 572 640 line~;
#X text 583 615 something;
#X obj 1112 -136 key;
#X obj 1635 -148 keyup;
#X obj 97 -443 key;
#X floatatom 94 -404 5 0 0 0 - - -;
#X floatatom 115 -57 5 0 0 0 - - -;
#X obj 32 -178 bng 15 250 50 0 empty empty empty 17 7 0 10 -262144
-1 -1;
#X obj 30 -233 spigot;
#X obj 60 -305 == 113;
#X floatatom 40 -272 5 0 0 0 - - -;
#X obj 126 -210 spigot;
#X floatatom 143 -265 5 0 0 0 - - -;
#X obj 216 -202 spigot;
#X floatatom 231 -253 5 0 0 0 - - -;
#X obj 240 -183 spigot;
#X floatatom 248 -230 5 0 0 0 - - -;
#X obj 260 -202 spigot;
#X floatatom 264 -250 5 0 0 0 - - -;
#X obj 66 -207 spigot;
#X floatatom 78 -270 5 0 0 0 - - -;
#X obj 104 -182 spigot;
#X floatatom 109 -241 5 0 0 0 - - -;
#X obj 154 -179 spigot;
#X floatatom 167 -234 5 0 0 0 - - -;
#X obj 197 -180 spigot;
#X floatatom 206 -230 5 0 0 0 - - -;
#X obj 303 -202 spigot;
#X floatatom 324 -248 5 0 0 0 - - -;
#X obj 326 -183 spigot;
#X floatatom 346 -222 5 0 0 0 - - -;
#X obj 369 -183 spigot;
#X floatatom 386 -242 5 0 0 0 - - -;
#X obj 282 -182 spigot;
#X floatatom 304 -223 5 0 0 0 - - -;
#X obj 99 -306 == 119;
#X obj 128 -282 == 101;
#X obj 154 -306 == 114;
#X obj 186 -286 == 116;
#X obj 61 -175 bng 15 250 50 0 empty empty empty 17 7 0 10 -262144
-1 -1;
#X obj 99 -157 bng 15 250 50 0 empty empty empty 17 7 0 10 -262144
-1 -1;
#X obj 126 -168 bng 15 250 50 0 empty empty empty 17 7 0 10 -262144
-1 -1;
#X obj 149 -154 bng 15 250 50 0 empty empty empty 17 7 0 10 -262144
-1 -1;
#X obj 178 -151 bng 15 250 50 0 empty empty empty 17 7 0 10 -262144
-1 -1;
#X obj 208 -164 bng 15 250 50 0 empty empty empty 17 7 0 10 -262144
-1 -1;
#X obj 237 -161 bng 15 250 50 0 empty empty empty 17 7 0 10 -262144
-1 -1;
#X obj 256 -164 bng 15 250 50 0 empty empty empty 17 7 0 10 -262144
-1 -1;
#X obj 285 -161 bng 15 250 50 0 empty empty empty 17 7 0 10 -262144
-1 -1;
#X obj 308 -163 bng 15 250 50 0 empty empty empty 17 7 0 10 -262144
-1 -1;
#X obj 337 -160 bng 15 250 50 0 empty empty empty 17 7 0 10 -262144
-1 -1;
#X obj 374 -145 bng 15 250 50 0 empty empty empty 17 7 0 10 -262144
-1 -1;
#X obj 215 -309 == 121;
#X obj 231 -289 == 117;
#X obj 261 -310 == 105;
#X obj 305 -312 == 111;
#X obj 318 -289 == 112;
#X obj 349 -308 == 91;
#X obj 365 -291 == 93;
#X obj 410 -309 == 61;
#X connect 0 0 1 0;
#X connect 0 0 2 0;
#X connect 0 0 3 0;
#X connect 0 0 4 0;
#X connect 0 0 5 0;
#X connect 0 0 6 0;
#X connect 0 0 7 0;
#X connect 0 0 8 0;
#X connect 1 0 9 0;
#X connect 2 0 10 0;
#X connect 3 0 11 0;
#X connect 4 0 12 0;
#X connect 5 0 13 0;
#X connect 6 0 14 0;
#X connect 7 0 15 0;
#X connect 8 0 16 0;
#X connect 9 0 19 0;
#X connect 10 0 20 0;
#X connect 11 0 21 0;
#X connect 12 0 22 0;
#X connect 13 0 23 0;
#X connect 14 0 24 0;
#X connect 15 0 25 0;
#X connect 16 0 26 0;
#X connect 19 0 27 0;
#X connect 20 0 28 0;
#X connect 21 0 29 0;
#X connect 22 0 30 0;
#X connect 23 0 31 0;
#X connect 24 0 32 0;
#X connect 25 0 33 0;
#X connect 26 0 34 0;
#X connect 27 0 75 0;
#X connect 28 0 76 0;
#X connect 29 0 77 0;
#X connect 30 0 78 0;
#X connect 31 0 79 0;
#X connect 32 0 80 0;
#X connect 33 0 81 0;
#X connect 34 0 82 0;
#X connect 35 0 36 0;
#X connect 36 0 37 0;
#X connect 37 0 27 1;
#X connect 38 0 39 0;
#X connect 39 0 40 0;
#X connect 40 0 28 1;
#X connect 41 0 42 0;
#X connect 42 0 43 0;
#X connect 43 0 29 1;
#X connect 44 0 45 0;
#X connect 45 0 46 0;
#X connect 46 0 30 1;
#X connect 47 0 48 0;
#X connect 48 0 49 0;
#X connect 49 0 31 1;
#X connect 50 0 51 0;
#X connect 51 0 52 0;
#X connect 52 0 32 1;
#X connect 53 0 54 0;
#X connect 54 0 55 0;
#X connect 55 0 33 1;
#X connect 56 0 57 0;
#X connect 57 0 58 0;
#X connect 58 0 34 1;
#X connect 60 0 61 0;
#X connect 61 0 62 0;
#X connect 62 0 64 1;
#X connect 64 0 63 0;
#X connect 64 0 63 1;
#X connect 67 0 75 1;
#X connect 68 0 76 1;
#X connect 69 0 77 1;
#X connect 70 0 78 1;
#X connect 71 0 79 1;
#X connect 72 0 80 1;
#X connect 73 0 81 1;
#X connect 74 0 82 1;
#X connect 75 0 64 0;
#X connect 76 0 64 0;
#X connect 77 0 64 0;
#X connect 78 0 64 0;
#X connect 79 0 64 0;
#X connect 80 0 64 0;
#X connect 81 0 64 0;
#X connect 82 0 64 0;
#X connect 84 0 116 0;
#X connect 85 0 116 1;
#X connect 86 0 117 0;
#X connect 87 0 117 1;
#X connect 88 0 118 0;
#X connect 89 0 118 1;
#X connect 90 0 119 0;
#X connect 91 0 119 1;
#X connect 92 0 120 0;
#X connect 93 0 120 1;
#X connect 94 0 121 0;
#X connect 95 0 121 1;
#X connect 96 0 122 0;
#X connect 97 0 122 1;
#X connect 98 0 123 0;
#X connect 99 0 123 1;
#X connect 100 0 67 0;
#X connect 101 0 68 0;
#X connect 102 0 69 0;
#X connect 103 0 70 0;
#X connect 104 0 71 0;
#X connect 105 0 72 0;
#X connect 106 0 73 0;
#X connect 107 0 74 0;
#X connect 108 0 67 0;
#X connect 109 0 68 0;
#X connect 110 0 69 0;
#X connect 111 0 70 0;
#X connect 112 0 71 0;
#X connect 113 0 72 0;
#X connect 114 0 73 0;
#X connect 115 0 74 0;
#X connect 116 0 100 0;
#X connect 117 0 101 0;
#X connect 118 0 102 0;
#X connect 119 0 103 0;
#X connect 120 0 104 0;
#X connect 121 0 105 0;
#X connect 122 0 106 0;
#X connect 123 0 107 0;
#X connect 124 0 116 0;
#X connect 125 0 117 0;
#X connect 126 0 118 0;
#X connect 127 0 119 0;
#X connect 128 0 120 0;
#X connect 129 0 121 0;
#X connect 130 0 122 0;
#X connect 131 0 123 0;
#X connect 132 0 148 0;
#X connect 133 0 149 0;
#X connect 134 0 150 0;
#X connect 135 0 151 0;
#X connect 136 0 152 0;
#X connect 137 0 153 0;
#X connect 138 0 154 0;
#X connect 139 0 155 0;
#X connect 140 0 148 0;
#X connect 141 0 149 0;
#X connect 142 0 150 0;
#X connect 143 0 151 0;
#X connect 144 0 152 0;
#X connect 145 0 153 0;
#X connect 146 0 154 0;
#X connect 147 0 155 0;
#X connect 148 0 108 0;
#X connect 149 0 109 0;
#X connect 150 0 110 0;
#X connect 151 0 111 0;
#X connect 152 0 112 0;
#X connect 153 0 113 0;
#X connect 154 0 114 0;
#X connect 155 0 115 0;
#X connect 156 0 0 0;
#X connect 157 0 183 0;
#X connect 158 0 183 0;
#X connect 159 0 183 0;
#X connect 160 0 183 0;
#X connect 161 0 183 0;
#X connect 162 0 183 0;
#X connect 163 0 183 0;
#X connect 164 0 183 0;
#X connect 165 0 183 0;
#X connect 166 0 183 0;
#X connect 167 0 183 0;
#X connect 168 0 183 0;
#X connect 169 0 183 0;
#X connect 170 0 171 0;
#X connect 171 0 172 0;
#X connect 172 0 175 1;
#X connect 173 0 174 0;
#X connect 174 0 177 0;
#X connect 176 0 175 0;
#X connect 177 0 176 0;
#X connect 179 0 124 0;
#X connect 179 0 125 0;
#X connect 179 0 126 0;
#X connect 179 0 127 0;
#X connect 179 0 128 0;
#X connect 179 0 129 0;
#X connect 179 0 130 0;
#X connect 179 0 131 0;
#X connect 180 0 140 0;
#X connect 180 0 141 0;
#X connect 180 0 142 0;
#X connect 180 0 143 0;
#X connect 180 0 144 0;
#X connect 180 0 145 0;
#X connect 180 0 146 0;
#X connect 180 0 147 0;
#X connect 181 0 182 0;
#X connect 182 0 186 0;
#X connect 182 0 212 0;
#X connect 182 0 213 0;
#X connect 182 0 214 0;
#X connect 182 0 215 0;
#X connect 182 0 228 0;
#X connect 182 0 229 0;
#X connect 182 0 230 0;
#X connect 182 0 231 0;
#X connect 182 0 232 0;
#X connect 182 0 233 0;
#X connect 182 0 234 0;
#X connect 182 0 235 0;
#X connect 183 0 156 0;
#X connect 184 0 157 0;
#X connect 185 0 184 0;
#X connect 186 0 187 0;
#X connect 187 0 185 1;
#X connect 187 0 185 0;
#X connect 188 0 218 0;
#X connect 189 0 188 1;
#X connect 189 0 188 0;
#X connect 190 0 221 0;
#X connect 191 0 190 1;
#X connect 191 0 190 0;
#X connect 192 0 222 0;
#X connect 193 0 192 1;
#X connect 193 0 192 0;
#X connect 194 0 223 0;
#X connect 195 0 194 1;
#X connect 195 0 194 0;
#X connect 196 0 216 0;
#X connect 197 0 196 1;
#X connect 197 0 196 0;
#X connect 198 0 217 0;
#X connect 199 0 198 1;
#X connect 199 0 198 0;
#X connect 200 0 219 0;
#X connect 201 0 200 1;
#X connect 201 0 200 0;
#X connect 202 0 220 0;
#X connect 203 0 202 1;
#X connect 203 0 202 0;
#X connect 204 0 225 0;
#X connect 205 0 204 1;
#X connect 205 0 204 0;
#X connect 206 0 226 0;
#X connect 207 0 206 1;
#X connect 207 0 206 0;
#X connect 208 0 227 0;
#X connect 209 0 208 1;
#X connect 209 0 208 0;
#X connect 210 0 224 0;
#X connect 211 0 210 1;
#X connect 211 0 210 0;
#X connect 212 0 197 0;
#X connect 213 0 199 0;
#X connect 214 0 189 0;
#X connect 215 0 201 0;
#X connect 216 0 165 0;
#X connect 217 0 158 0;
#X connect 218 0 166 0;
#X connect 219 0 159 0;
#X connect 220 0 160 0;
#X connect 221 0 167 0;
#X connect 222 0 161 0;
#X connect 223 0 168 0;
#X connect 224 0 162 0;
#X connect 225 0 169 0;
#X connect 226 0 163 0;
#X connect 227 0 164 0;
#X connect 228 0 203 0;
#X connect 229 0 191 0;
#X connect 230 0 193 0;
#X connect 231 0 195 0;
#X connect 232 0 211 0;
#X connect 233 0 205 0;
#X connect 234 0 207 0;
#X connect 235 0 209 0;
